<mxfile host="app.diagrams.net" modified="2023-11-18T23:51:08.085Z" agent="Mozilla/5.0 (Windows NT 10.0; Win64; x64) AppleWebKit/537.36 (KHTML, like Gecko) Chrome/119.0.0.0 Safari/537.36" etag="Jb9xs1llMLlh1aojVP_L" version="22.1.3" type="github" pages="3">
  <diagram id="6a731a19-8d31-9384-78a2-239565b7b9f0" name="Page-1">
    <mxGraphModel dx="1434" dy="796" grid="1" gridSize="10" guides="1" tooltips="1" connect="1" arrows="1" fold="1" page="1" pageScale="1" pageWidth="1169" pageHeight="827" background="#003469" math="0" shadow="0">
      <root>
        <mxCell id="0" />
        <mxCell id="1" parent="0" />
        <mxCell id="2019" value="" style="rounded=1;whiteSpace=wrap;html=1;dashed=1;strokeColor=none;strokeWidth=2;fillColor=#E6E6E6;fontFamily=Verdana;fontSize=12;fontColor=#00BEF2" parent="1" vertex="1">
          <mxGeometry x="40" y="120" width="165" height="670" as="geometry" />
        </mxCell>
        <mxCell id="2020" value="" style="rounded=1;whiteSpace=wrap;html=1;dashed=1;strokeColor=none;strokeWidth=2;fillColor=#E6E6E6;fontFamily=Verdana;fontSize=12;fontColor=#00BEF2" parent="1" vertex="1">
          <mxGeometry x="220" y="120" width="165" height="670" as="geometry" />
        </mxCell>
        <mxCell id="2021" value="" style="rounded=1;whiteSpace=wrap;html=1;dashed=1;strokeColor=none;strokeWidth=2;fillColor=#E6E6E6;fontFamily=Verdana;fontSize=12;fontColor=#00BEF2" parent="1" vertex="1">
          <mxGeometry x="400" y="120" width="165" height="670" as="geometry" />
        </mxCell>
        <mxCell id="2022" value="" style="rounded=1;whiteSpace=wrap;html=1;dashed=1;strokeColor=none;strokeWidth=2;fillColor=#E6E6E6;fontFamily=Verdana;fontSize=12;fontColor=#00BEF2" parent="1" vertex="1">
          <mxGeometry x="580" y="120" width="165" height="670" as="geometry" />
        </mxCell>
        <mxCell id="2023" value="" style="rounded=1;whiteSpace=wrap;html=1;dashed=1;strokeColor=none;strokeWidth=2;fillColor=#E6E6E6;fontFamily=Verdana;fontSize=12;fontColor=#00BEF2" parent="1" vertex="1">
          <mxGeometry x="760" y="120" width="165" height="670" as="geometry" />
        </mxCell>
        <mxCell id="2024" value="" style="rounded=1;whiteSpace=wrap;html=1;dashed=1;strokeColor=none;strokeWidth=2;fillColor=#E6E6E6;fontFamily=Verdana;fontSize=12;fontColor=#00BEF2" parent="1" vertex="1">
          <mxGeometry x="940" y="120" width="165" height="670" as="geometry" />
        </mxCell>
        <mxCell id="2025" value="Event" style="whiteSpace=wrap;html=1;dashed=1;strokeColor=none;strokeWidth=2;fillColor=#3399FF;fontFamily=Helvetica;fontSize=18;fontColor=#FFFFFF;fontStyle=1" parent="1" vertex="1">
          <mxGeometry x="40" y="120" width="165" height="60" as="geometry" />
        </mxCell>
        <mxCell id="2026" value="Compute" style="whiteSpace=wrap;html=1;dashed=1;strokeColor=none;strokeWidth=2;fillColor=#3399FF;fontFamily=Helvetica;fontSize=18;fontColor=#FFFFFF;fontStyle=1" parent="1" vertex="1">
          <mxGeometry x="220" y="120" width="165" height="60" as="geometry" />
        </mxCell>
        <mxCell id="2027" value="Data&lt;div&gt;Services&lt;/div&gt;" style="whiteSpace=wrap;html=1;dashed=1;strokeColor=none;strokeWidth=2;fillColor=#3399FF;fontFamily=Helvetica;fontSize=18;fontColor=#FFFFFF;fontStyle=1" parent="1" vertex="1">
          <mxGeometry x="400" y="120" width="165" height="60" as="geometry" />
        </mxCell>
        <mxCell id="2028" value="Data&lt;div&gt;Storage&lt;/div&gt;" style="whiteSpace=wrap;html=1;dashed=1;strokeColor=none;strokeWidth=2;fillColor=#3399FF;fontFamily=Helvetica;fontSize=18;fontColor=#FFFFFF;fontStyle=1" parent="1" vertex="1">
          <mxGeometry x="580" y="120" width="165" height="60" as="geometry" />
        </mxCell>
        <mxCell id="2029" value="App&lt;div&gt;Services&lt;/div&gt;" style="whiteSpace=wrap;html=1;dashed=1;strokeColor=none;strokeWidth=2;fillColor=#3399FF;fontFamily=Helvetica;fontSize=18;fontColor=#FFFFFF;fontStyle=1" parent="1" vertex="1">
          <mxGeometry x="760" y="120" width="165" height="60" as="geometry" />
        </mxCell>
        <mxCell id="2030" value="&amp;nbsp; &amp;nbsp;Presentation" style="whiteSpace=wrap;html=1;dashed=1;strokeColor=none;strokeWidth=2;fillColor=#3399FF;fontFamily=Helvetica;fontSize=18;fontColor=#FFFFFF;fontStyle=1" parent="1" vertex="1">
          <mxGeometry x="940" y="120" width="165" height="60" as="geometry" />
        </mxCell>
        <mxCell id="2031" value="" style="shape=mxgraph.arrows.two_way_arrow_horizontal;html=1;verticalLabelPosition=bottom;verticalAlign=top;strokeWidth=2;strokeColor=none;dashed=1;fillColor=#FFFFFF;fontFamily=Verdana;fontSize=12;fontColor=#00BEF2" parent="1" vertex="1">
          <mxGeometry x="180" y="131" width="67" height="39" as="geometry" />
        </mxCell>
        <mxCell id="2032" value="" style="shape=mxgraph.arrows.two_way_arrow_horizontal;html=1;verticalLabelPosition=bottom;verticalAlign=top;strokeWidth=2;strokeColor=none;dashed=1;fillColor=#FFFFFF;fontFamily=Verdana;fontSize=12;fontColor=#00BEF2" parent="1" vertex="1">
          <mxGeometry x="360" y="131" width="67" height="39" as="geometry" />
        </mxCell>
        <mxCell id="2033" value="" style="shape=mxgraph.arrows.two_way_arrow_horizontal;html=1;verticalLabelPosition=bottom;verticalAlign=top;strokeWidth=2;strokeColor=none;dashed=1;fillColor=#FFFFFF;fontFamily=Verdana;fontSize=12;fontColor=#00BEF2" parent="1" vertex="1">
          <mxGeometry x="540" y="131" width="67" height="39" as="geometry" />
        </mxCell>
        <mxCell id="2034" value="" style="shape=mxgraph.arrows.two_way_arrow_horizontal;html=1;verticalLabelPosition=bottom;verticalAlign=top;strokeWidth=2;strokeColor=none;dashed=1;fillColor=#FFFFFF;fontFamily=Verdana;fontSize=12;fontColor=#00BEF2" parent="1" vertex="1">
          <mxGeometry x="720" y="131" width="67" height="39" as="geometry" />
        </mxCell>
        <mxCell id="2035" value="" style="shape=mxgraph.arrows.two_way_arrow_horizontal;html=1;verticalLabelPosition=bottom;verticalAlign=top;strokeWidth=2;strokeColor=none;dashed=1;fillColor=#FFFFFF;fontFamily=Verdana;fontSize=12;fontColor=#00BEF2" parent="1" vertex="1">
          <mxGeometry x="900" y="131" width="67" height="39" as="geometry" />
        </mxCell>
        <mxCell id="2036" value="" style="verticalLabelPosition=bottom;html=1;verticalAlign=top;strokeColor=none;fillColor=#003366;shape=mxgraph.azure.cloud_service;dashed=1;fontFamily=Helvetica;fontSize=18;fontColor=#FFFFFF;opacity=25" parent="1" vertex="1">
          <mxGeometry x="107" y="171.25" width="970" height="600" as="geometry" />
        </mxCell>
        <mxCell id="2037" value="" style="verticalLabelPosition=bottom;html=1;verticalAlign=top;strokeColor=none;fillColor=#3399FF;shape=mxgraph.azure.tablet;dashed=1;fontFamily=Helvetica;fontSize=14;fontColor=#004C99" parent="1" vertex="1">
          <mxGeometry x="66" y="401" width="50" height="37.5" as="geometry" />
        </mxCell>
        <mxCell id="2038" value="" style="verticalLabelPosition=bottom;html=1;verticalAlign=top;strokeColor=none;fillColor=#3399FF;shape=mxgraph.azure.mobile;dashed=1;fontFamily=Helvetica;fontSize=14;fontColor=#004C99" parent="1" vertex="1">
          <mxGeometry x="146" y="395" width="35" height="50" as="geometry" />
        </mxCell>
        <mxCell id="2039" value="Devices" style="verticalLabelPosition=bottom;html=1;verticalAlign=top;strokeColor=none;fillColor=#3399FF;shape=mxgraph.azure.laptop;dashed=1;fontFamily=Helvetica;fontSize=14;fontColor=#004C99" parent="1" vertex="1">
          <mxGeometry x="96" y="451" width="50" height="30" as="geometry" />
        </mxCell>
        <mxCell id="2040" value="Applications" style="verticalLabelPosition=bottom;html=1;verticalAlign=top;strokeColor=none;fillColor=#3399FF;shape=mxgraph.azure.mobile_services;dashed=1;fontFamily=Helvetica;fontSize=14;fontColor=#004C99" parent="1" vertex="1">
          <mxGeometry x="107" y="250" width="32.5" height="50" as="geometry" />
        </mxCell>
        <mxCell id="2041" value="Social" style="verticalLabelPosition=bottom;html=1;verticalAlign=top;strokeColor=none;fillColor=#3399FF;shape=mxgraph.azure.user;dashed=1;fontSize=14;fontColor=#004C99" parent="1" vertex="1">
          <mxGeometry x="92" y="680" width="47.5" height="50" as="geometry" />
        </mxCell>
        <mxCell id="2042" value="" style="verticalLabelPosition=bottom;html=1;verticalAlign=top;strokeColor=none;fillColor=#3399FF;shape=mxgraph.azure.github_code;dashed=1;fontSize=14;fontColor=#004C99" parent="1" vertex="1">
          <mxGeometry x="133" y="560" width="50" height="50" as="geometry" />
        </mxCell>
        <mxCell id="2043" value="" style="verticalLabelPosition=bottom;html=1;verticalAlign=top;strokeColor=none;fillColor=#3399FF;shape=mxgraph.azure.dropbox_code_source;dashed=1;fontSize=14;fontColor=#004C99" parent="1" vertex="1">
          <mxGeometry x="73" y="563" width="50" height="47.5" as="geometry" />
        </mxCell>
        <mxCell id="2044" value="Repositories" style="text;html=1;strokeColor=none;fillColor=none;align=center;verticalAlign=middle;whiteSpace=wrap;overflow=hidden;dashed=1;fontSize=14;fontColor=#004C99" parent="1" vertex="1">
          <mxGeometry x="60" y="620" width="120" height="20" as="geometry" />
        </mxCell>
        <mxCell id="2045" value="Azure Website" style="verticalLabelPosition=bottom;html=1;verticalAlign=top;strokeColor=none;fillColor=#3399FF;shape=mxgraph.azure.azure_website;dashed=1;fontSize=14;fontColor=#004C99" parent="1" vertex="1">
          <mxGeometry x="277.5" y="250" width="50" height="50" as="geometry" />
        </mxCell>
        <mxCell id="2046" value="Mobile Services" style="verticalLabelPosition=bottom;html=1;verticalAlign=top;strokeColor=none;fillColor=#3399FF;shape=mxgraph.azure.mobile_services;dashed=1;fontSize=14;fontColor=#004C99" parent="1" vertex="1">
          <mxGeometry x="287" y="661" width="32.5" height="50" as="geometry" />
        </mxCell>
        <mxCell id="2047" value="Windows Azure Management Portal" style="text;html=1;strokeColor=none;fillColor=none;align=center;verticalAlign=middle;whiteSpace=wrap;overflow=hidden;dashed=1;fontSize=36;fontColor=#FFFFFF;fontFamily=Helvetica;fontStyle=1" parent="1" vertex="1">
          <mxGeometry x="40" y="40" width="1060" height="50" as="geometry" />
        </mxCell>
        <mxCell id="2048" value="Business&amp;nbsp;&lt;div&gt;Analytics&lt;/div&gt;" style="rounded=1;whiteSpace=wrap;html=1;dashed=1;strokeColor=none;strokeWidth=2;fillColor=#FFFFFF;fontFamily=Helvetica;fontSize=14;fontColor=#FFB366;opacity=75;verticalAlign=top;fontStyle=1" parent="1" vertex="1">
          <mxGeometry x="410" y="190" width="140" height="260" as="geometry" />
        </mxCell>
        <mxCell id="2049" value="Data&lt;div&gt;Management&lt;/div&gt;" style="rounded=1;whiteSpace=wrap;html=1;dashed=1;strokeColor=none;strokeWidth=2;fillColor=#FFFFFF;fontFamily=Helvetica;fontSize=14;fontColor=#FFB366;opacity=75;verticalAlign=top;fontStyle=1" parent="1" vertex="1">
          <mxGeometry x="413" y="460" width="140" height="320" as="geometry" />
        </mxCell>
        <mxCell id="2050" value="SQL Reporting" style="verticalLabelPosition=bottom;html=1;verticalAlign=top;strokeColor=none;fillColor=#3399FF;shape=mxgraph.azure.sql_reporting;dashed=1;fontSize=14;fontColor=#004C99" parent="1" vertex="1">
          <mxGeometry x="460" y="258" width="40" height="50" as="geometry" />
        </mxCell>
        <mxCell id="2051" value="HDInsight" style="verticalLabelPosition=bottom;html=1;verticalAlign=top;strokeColor=none;fillColor=#3399FF;shape=mxgraph.azure.hdinsight;dashed=1;fontSize=14;fontColor=#004C99" parent="1" vertex="1">
          <mxGeometry x="458" y="355" width="50" height="50" as="geometry" />
        </mxCell>
        <mxCell id="2052" value="SQL Database" style="verticalLabelPosition=bottom;html=1;verticalAlign=top;strokeColor=none;fillColor=#3399FF;shape=mxgraph.azure.sql_database;dashed=1;fontFamily=Helvetica;fontSize=14;fontColor=#004C99" parent="1" vertex="1">
          <mxGeometry x="464" y="600" width="37.5" height="50" as="geometry" />
        </mxCell>
        <mxCell id="2053" value="Tables" style="verticalLabelPosition=bottom;html=1;verticalAlign=top;strokeColor=none;fillColor=#3399FF;shape=mxgraph.azure.storage_table;dashed=1;fontFamily=Helvetica;fontSize=14;fontColor=#004C99" parent="1" vertex="1">
          <mxGeometry x="458" y="689" width="50" height="45" as="geometry" />
        </mxCell>
        <mxCell id="2054" value="Blobs" style="verticalLabelPosition=bottom;html=1;verticalAlign=top;strokeColor=none;fillColor=#3399FF;shape=mxgraph.azure.storage_blob;dashed=1;fontFamily=Helvetica;fontSize=14;fontColor=#004C99" parent="1" vertex="1">
          <mxGeometry x="457" y="523" width="50" height="45" as="geometry" />
        </mxCell>
        <mxCell id="2055" value="Storage Management" style="rounded=1;whiteSpace=wrap;html=1;dashed=1;strokeColor=none;strokeWidth=2;fillColor=#FFFFFF;fontFamily=Helvetica;fontSize=14;fontColor=#FFB366;opacity=75;verticalAlign=top;fontStyle=1" parent="1" vertex="1">
          <mxGeometry x="594" y="240" width="140" height="280" as="geometry" />
        </mxCell>
        <mxCell id="2056" value="Storage Servers" style="verticalLabelPosition=bottom;html=1;verticalAlign=top;strokeColor=none;fillColor=#3399FF;shape=mxgraph.azure.server_rack;dashed=1;fontFamily=Helvetica;fontSize=14;fontColor=#004C99" parent="1" vertex="1">
          <mxGeometry x="638" y="305" width="50" height="50" as="geometry" />
        </mxCell>
        <mxCell id="2057" value="Database" style="verticalLabelPosition=bottom;html=1;verticalAlign=top;strokeColor=none;fillColor=#3399FF;shape=mxgraph.azure.database;dashed=1;fontFamily=Helvetica;fontSize=14;fontColor=#004C99" parent="1" vertex="1">
          <mxGeometry x="644" y="414" width="37.5" height="50" as="geometry" />
        </mxCell>
        <mxCell id="2058" value="Physical&lt;div&gt;Data Storage&lt;/div&gt;" style="verticalLabelPosition=bottom;html=1;verticalAlign=top;strokeColor=none;fillColor=#3399FF;shape=mxgraph.azure.vhd;dashed=1;fontFamily=Helvetica;fontSize=14;fontColor=#004C99" parent="1" vertex="1">
          <mxGeometry x="643" y="590" width="40" height="50" as="geometry" />
        </mxCell>
        <mxCell id="2059" value="Identity" style="rounded=1;whiteSpace=wrap;html=1;dashed=1;strokeColor=none;strokeWidth=2;fillColor=#FFFFFF;fontFamily=Helvetica;fontSize=14;fontColor=#FFB366;opacity=75;verticalAlign=top;fontStyle=1" parent="1" vertex="1">
          <mxGeometry x="773" y="196" width="140" height="134" as="geometry" />
        </mxCell>
        <mxCell id="2060" value="Windows Azure&amp;nbsp;&lt;div&gt;Active Directorry&lt;/div&gt;" style="verticalLabelPosition=bottom;html=1;verticalAlign=top;strokeColor=none;fillColor=#3399FF;shape=mxgraph.azure.azure_active_directory;dashed=1;fontFamily=Helvetica;fontSize=14;fontColor=#004C99" parent="1" vertex="1">
          <mxGeometry x="819" y="225" width="47.5" height="50" as="geometry" />
        </mxCell>
        <mxCell id="2061" value="Performance" style="rounded=1;whiteSpace=wrap;html=1;dashed=1;strokeColor=none;strokeWidth=2;fillColor=#FFFFFF;fontFamily=Helvetica;fontSize=14;fontColor=#FFB366;opacity=75;verticalAlign=top;fontStyle=1" parent="1" vertex="1">
          <mxGeometry x="774" y="341" width="140" height="199" as="geometry" />
        </mxCell>
        <mxCell id="2062" value="Caching" style="verticalLabelPosition=bottom;html=1;verticalAlign=top;strokeColor=none;fillColor=#3399FF;shape=mxgraph.azure.azure_cache;dashed=1;fontFamily=Helvetica;fontSize=14;fontColor=#004C99" parent="1" vertex="1">
          <mxGeometry x="821" y="376" width="45" height="50" as="geometry" />
        </mxCell>
        <mxCell id="2063" value="Content&amp;nbsp;&lt;div&gt;Delivery Network&lt;/div&gt;" style="verticalLabelPosition=bottom;html=1;verticalAlign=top;strokeColor=none;fillColor=#3399FF;shape=mxgraph.azure.content_delivery_network;dashed=1;fontFamily=Helvetica;fontSize=14;fontColor=#004C99" parent="1" vertex="1">
          <mxGeometry x="819" y="455" width="50" height="32.5" as="geometry" />
        </mxCell>
        <mxCell id="2064" value="Messaging" style="rounded=1;whiteSpace=wrap;html=1;dashed=1;strokeColor=none;strokeWidth=2;fillColor=#FFFFFF;fontFamily=Helvetica;fontSize=14;fontColor=#FFB366;opacity=75;verticalAlign=top;fontStyle=1" parent="1" vertex="1">
          <mxGeometry x="773" y="550" width="140" height="229" as="geometry" />
        </mxCell>
        <mxCell id="2065" value="Queues" style="verticalLabelPosition=bottom;html=1;verticalAlign=top;strokeColor=none;fillColor=#3399FF;shape=mxgraph.azure.queue_generic;dashed=1;fontFamily=Helvetica;fontSize=14;fontColor=#004C99" parent="1" vertex="1">
          <mxGeometry x="820" y="576" width="50" height="15" as="geometry" />
        </mxCell>
        <mxCell id="2066" value="Service Bus" style="verticalLabelPosition=bottom;html=1;verticalAlign=top;strokeColor=none;fillColor=#3399FF;shape=mxgraph.azure.service_bus;dashed=1;fontFamily=Helvetica;fontSize=14;fontColor=#004C99" parent="1" vertex="1">
          <mxGeometry x="824" y="624" width="45" height="50" as="geometry" />
        </mxCell>
        <mxCell id="2067" value="Media Services" style="verticalLabelPosition=bottom;html=1;verticalAlign=top;strokeColor=none;fillColor=#3399FF;shape=mxgraph.azure.media_service;dashed=1;fontFamily=Helvetica;fontSize=14;fontColor=#004C99" parent="1" vertex="1">
          <mxGeometry x="821" y="703" width="45" height="50" as="geometry" />
        </mxCell>
        <mxCell id="2068" value="Cloud&lt;div&gt;Services&lt;/div&gt;" style="rounded=1;whiteSpace=wrap;html=1;dashed=1;strokeColor=none;strokeWidth=2;fillColor=#FFFFFF;fontFamily=Helvetica;fontSize=14;fontColor=#FFB366;opacity=75;verticalAlign=top;fontStyle=1" parent="1" vertex="1">
          <mxGeometry x="233" y="397" width="140" height="223" as="geometry" />
        </mxCell>
        <mxCell id="2069" value="Cloud" style="verticalLabelPosition=bottom;html=1;verticalAlign=top;strokeColor=none;fillColor=#3399FF;shape=mxgraph.azure.cloud;dashed=1;fontSize=14;fontColor=#004C99" parent="1" vertex="1">
          <mxGeometry x="278" y="449" width="50" height="32.5" as="geometry" />
        </mxCell>
        <mxCell id="2070" value="Virtual Machine" style="verticalLabelPosition=bottom;html=1;verticalAlign=top;strokeColor=none;fillColor=#3399FF;shape=mxgraph.azure.virtual_machine;dashed=1;fontSize=14;fontColor=#004C99" parent="1" vertex="1">
          <mxGeometry x="278" y="536" width="50" height="40" as="geometry" />
        </mxCell>
        <mxCell id="2071" value="Web Dashboards" style="verticalLabelPosition=bottom;html=1;verticalAlign=top;strokeColor=none;fillColor=#3399FF;shape=mxgraph.azure.laptop;dashed=1;fontFamily=Helvetica;fontSize=14;fontColor=#004C99" parent="1" vertex="1">
          <mxGeometry x="998" y="301" width="50" height="30" as="geometry" />
        </mxCell>
        <mxCell id="2072" value="Certificates" style="verticalLabelPosition=bottom;html=1;verticalAlign=top;strokeColor=none;fillColor=#3399FF;shape=mxgraph.azure.certificate;dashed=1;fontFamily=Helvetica;fontSize=14;fontColor=#004C99" parent="1" vertex="1">
          <mxGeometry x="998" y="399" width="50" height="40" as="geometry" />
        </mxCell>
        <mxCell id="2073" value="Enterprise&lt;div&gt;Services&lt;/div&gt;" style="verticalLabelPosition=bottom;html=1;verticalAlign=top;strokeColor=none;fillColor=#3399FF;shape=mxgraph.azure.enterprise;dashed=1;fontFamily=Helvetica;fontSize=14;fontColor=#004C99" parent="1" vertex="1">
          <mxGeometry x="1008" y="518" width="30" height="50" as="geometry" />
        </mxCell>
        <mxCell id="2074" value="Seminars" style="verticalLabelPosition=bottom;html=1;verticalAlign=top;strokeColor=none;fillColor=#3399FF;shape=mxgraph.azure.user;dashed=1;fontFamily=Helvetica;fontSize=14;fontColor=#004C99" parent="1" vertex="1">
          <mxGeometry x="1001" y="630" width="47.5" height="50" as="geometry" />
        </mxCell>
        <mxCell id="2075" value="" style="arrow;html=1;endArrow=block;endFill=1;strokeColor=none;strokeWidth=4;fontFamily=Helvetica;fontSize=36;fontColor=#FFB366;fillColor=#FFB366;" parent="1" edge="1">
          <mxGeometry width="100" height="100" relative="1" as="geometry">
            <mxPoint x="167" y="283" as="sourcePoint" />
            <mxPoint x="247" y="283" as="targetPoint" />
          </mxGeometry>
        </mxCell>
        <mxCell id="2076" value="" style="arrow;html=1;endArrow=block;endFill=1;strokeColor=none;strokeWidth=4;fontFamily=Helvetica;fontSize=36;fontColor=#FFB366;fillColor=#FFB366;opacity=100" parent="1" edge="1">
          <mxGeometry width="100" height="100" relative="1" as="geometry">
            <mxPoint x="347" y="283" as="sourcePoint" />
            <mxPoint x="427" y="283" as="targetPoint" />
          </mxGeometry>
        </mxCell>
        <mxCell id="2077" value="" style="arrow;html=1;endArrow=block;endFill=1;strokeColor=none;strokeWidth=4;fontFamily=Helvetica;fontSize=36;fontColor=#FFB366;fillColor=#FFB366;" parent="1" edge="1">
          <mxGeometry width="100" height="100" relative="1" as="geometry">
            <mxPoint x="527" y="360" as="sourcePoint" />
            <mxPoint x="607" y="360" as="targetPoint" />
          </mxGeometry>
        </mxCell>
        <mxCell id="2078" value="" style="arrow;html=1;endArrow=block;endFill=1;strokeColor=none;strokeWidth=4;fontFamily=Helvetica;fontSize=36;fontColor=#FFB366;fillColor=#FFB366;" parent="1" edge="1">
          <mxGeometry width="100" height="100" relative="1" as="geometry">
            <mxPoint x="714" y="426" as="sourcePoint" />
            <mxPoint x="794" y="426" as="targetPoint" />
          </mxGeometry>
        </mxCell>
        <mxCell id="2079" value="" style="arrow;html=1;endArrow=block;endFill=1;strokeColor=none;strokeWidth=4;fontFamily=Helvetica;fontSize=36;fontColor=#FFB366;fillColor=#FFB366;" parent="1" edge="1">
          <mxGeometry width="100" height="100" relative="1" as="geometry">
            <mxPoint x="714" y="270" as="sourcePoint" />
            <mxPoint x="794" y="270" as="targetPoint" />
          </mxGeometry>
        </mxCell>
        <mxCell id="2080" value="" style="arrow;html=1;endArrow=block;endFill=1;strokeColor=none;strokeWidth=4;fontFamily=Helvetica;fontSize=36;fontColor=#FFB366;fillColor=#FFB366;" parent="1" edge="1">
          <mxGeometry width="100" height="100" relative="1" as="geometry">
            <mxPoint x="887" y="438" as="sourcePoint" />
            <mxPoint x="967" y="438" as="targetPoint" />
          </mxGeometry>
        </mxCell>
        <mxCell id="2081" value="" style="arrow;html=1;endArrow=block;endFill=1;strokeColor=none;strokeWidth=4;fontFamily=Helvetica;fontSize=36;fontColor=#FFB366;fillColor=#FFB366;" parent="1" edge="1">
          <mxGeometry width="100" height="100" relative="1" as="geometry">
            <mxPoint x="894" y="664" as="sourcePoint" />
            <mxPoint x="974" y="664" as="targetPoint" />
          </mxGeometry>
        </mxCell>
        <mxCell id="2082" value="" style="arrow;html=1;endArrow=block;endFill=1;strokeColor=none;strokeWidth=4;fontFamily=Helvetica;fontSize=36;fontColor=#FFB366;fillColor=#FFB366;" parent="1" edge="1">
          <mxGeometry width="100" height="100" relative="1" as="geometry">
            <mxPoint x="707" y="639" as="sourcePoint" />
            <mxPoint x="787" y="639" as="targetPoint" />
          </mxGeometry>
        </mxCell>
        <mxCell id="2083" value="" style="arrow;html=1;endArrow=block;endFill=1;strokeColor=none;strokeWidth=4;fontFamily=Helvetica;fontSize=36;fontColor=#FFB366;fillColor=#FFB366;" parent="1" edge="1">
          <mxGeometry width="100" height="100" relative="1" as="geometry">
            <mxPoint x="534" y="624" as="sourcePoint" />
            <mxPoint x="614" y="624" as="targetPoint" />
          </mxGeometry>
        </mxCell>
        <mxCell id="2084" value="" style="arrow;html=1;endArrow=block;endFill=1;strokeColor=none;strokeWidth=4;fontFamily=Helvetica;fontSize=36;fontColor=#FFB366;fillColor=#FFB366;" parent="1" edge="1">
          <mxGeometry width="100" height="100" relative="1" as="geometry">
            <mxPoint x="347" y="536" as="sourcePoint" />
            <mxPoint x="427" y="536" as="targetPoint" />
          </mxGeometry>
        </mxCell>
        <mxCell id="2085" value="" style="arrow;html=1;endArrow=block;endFill=1;strokeColor=none;strokeWidth=4;fontFamily=Helvetica;fontSize=36;fontColor=#FFB366;fillColor=#FFB366;" parent="1" edge="1">
          <mxGeometry width="100" height="100" relative="1" as="geometry">
            <mxPoint x="174" y="688" as="sourcePoint" />
            <mxPoint x="254" y="688" as="targetPoint" />
          </mxGeometry>
        </mxCell>
      </root>
    </mxGraphModel>
  </diagram>
  <diagram id="K50HzqP1983Xo4ahEYI8" name="페이지-2">
    <mxGraphModel dx="1687" dy="2590" grid="1" gridSize="10" guides="1" tooltips="1" connect="1" arrows="1" fold="1" page="1" pageScale="1" pageWidth="1169" pageHeight="827" math="0" shadow="0">
      <root>
        <mxCell id="0" />
        <mxCell id="1" parent="0" />
        <mxCell id="KInp1q100SS9J6qhSEow-76" value="TMS&lt;br&gt;Server" style="rounded=0;whiteSpace=wrap;html=1;verticalAlign=top;fontSize=20;fontStyle=1;labelBackgroundColor=none;" vertex="1" parent="1">
          <mxGeometry x="710" y="-1520" width="140" height="560" as="geometry" />
        </mxCell>
        <mxCell id="KInp1q100SS9J6qhSEow-66" value="TMS&lt;br&gt;Agent" style="rounded=0;whiteSpace=wrap;html=1;verticalAlign=top;fontSize=20;fontStyle=1;labelBackgroundColor=none;" vertex="1" parent="1">
          <mxGeometry x="520" y="-1520" width="130" height="560" as="geometry" />
        </mxCell>
        <mxCell id="KInp1q100SS9J6qhSEow-35" value="Shared&lt;br&gt;Memory" style="rounded=0;whiteSpace=wrap;html=1;verticalAlign=top;fontSize=20;fontStyle=1;labelBackgroundColor=none;" vertex="1" parent="1">
          <mxGeometry x="320" y="-1520" width="140" height="560" as="geometry" />
        </mxCell>
        <mxCell id="KInp1q100SS9J6qhSEow-15" value="&lt;b&gt;CFW&lt;/b&gt;" style="rounded=0;whiteSpace=wrap;html=1;verticalAlign=top;fontSize=20;labelBackgroundColor=none;" vertex="1" parent="1">
          <mxGeometry x="66" y="-1520" width="210" height="560" as="geometry" />
        </mxCell>
        <mxCell id="KInp1q100SS9J6qhSEow-3" value="service&lt;br&gt;Func1" style="ellipse;whiteSpace=wrap;html=1;spacing=2;fontSize=20;labelBackgroundColor=none;" vertex="1" parent="1">
          <mxGeometry x="111" y="-1370" width="120" height="80" as="geometry" />
        </mxCell>
        <mxCell id="KInp1q100SS9J6qhSEow-24" style="edgeStyle=orthogonalEdgeStyle;rounded=0;orthogonalLoop=1;jettySize=auto;html=1;entryX=0;entryY=0.5;entryDx=0;entryDy=0;labelBackgroundColor=none;fontColor=default;dashed=1;exitX=1;exitY=0.5;exitDx=0;exitDy=0;" edge="1" parent="1" source="KInp1q100SS9J6qhSEow-6" target="KInp1q100SS9J6qhSEow-23">
          <mxGeometry relative="1" as="geometry" />
        </mxCell>
        <mxCell id="KInp1q100SS9J6qhSEow-6" value="start&amp;nbsp;&lt;br style=&quot;font-size: 16px;&quot;&gt;api" style="ellipse;whiteSpace=wrap;html=1;spacing=2;fontSize=16;labelBackgroundColor=none;" vertex="1" parent="1">
          <mxGeometry x="80" y="-1480" width="70" height="60" as="geometry" />
        </mxCell>
        <mxCell id="KInp1q100SS9J6qhSEow-45" style="edgeStyle=orthogonalEdgeStyle;rounded=0;orthogonalLoop=1;jettySize=auto;html=1;entryX=0.5;entryY=1;entryDx=0;entryDy=0;" edge="1" parent="1" source="KInp1q100SS9J6qhSEow-7" target="KInp1q100SS9J6qhSEow-6">
          <mxGeometry relative="1" as="geometry" />
        </mxCell>
        <mxCell id="KInp1q100SS9J6qhSEow-7" value="" style="ellipse;whiteSpace=wrap;html=1;aspect=fixed;labelBackgroundColor=none;fillColor=#FF0D35;" vertex="1" parent="1">
          <mxGeometry x="110" y="-1334" width="10" height="10" as="geometry" />
        </mxCell>
        <mxCell id="KInp1q100SS9J6qhSEow-10" value="end&amp;nbsp;&lt;br style=&quot;font-size: 16px;&quot;&gt;api" style="ellipse;whiteSpace=wrap;html=1;spacing=2;fontSize=16;labelBackgroundColor=none;" vertex="1" parent="1">
          <mxGeometry x="187" y="-1430" width="70" height="60" as="geometry" />
        </mxCell>
        <mxCell id="KInp1q100SS9J6qhSEow-11" value="&lt;h1 style=&quot;font-size: 30px;&quot;&gt;TMS: 허용범위를 벗어나는 경우에는 유실을 허용한다.&lt;/h1&gt;" style="text;html=1;strokeColor=none;fillColor=none;spacing=5;spacingTop=-20;whiteSpace=wrap;overflow=hidden;rounded=0;fontSize=30;labelBackgroundColor=none;" vertex="1" parent="1">
          <mxGeometry x="40" y="-1640" width="810" height="70" as="geometry" />
        </mxCell>
        <mxCell id="KInp1q100SS9J6qhSEow-46" style="edgeStyle=orthogonalEdgeStyle;rounded=0;orthogonalLoop=1;jettySize=auto;html=1;entryX=0.5;entryY=1;entryDx=0;entryDy=0;" edge="1" parent="1" source="KInp1q100SS9J6qhSEow-12" target="KInp1q100SS9J6qhSEow-10">
          <mxGeometry relative="1" as="geometry" />
        </mxCell>
        <mxCell id="KInp1q100SS9J6qhSEow-12" value="" style="ellipse;whiteSpace=wrap;html=1;aspect=fixed;labelBackgroundColor=none;fillColor=#FF031C;" vertex="1" parent="1">
          <mxGeometry x="222" y="-1333" width="10" height="10" as="geometry" />
        </mxCell>
        <mxCell id="KInp1q100SS9J6qhSEow-25" style="edgeStyle=orthogonalEdgeStyle;rounded=0;orthogonalLoop=1;jettySize=auto;html=1;exitX=1;exitY=0.5;exitDx=0;exitDy=0;entryX=0;entryY=0.5;entryDx=0;entryDy=0;labelBackgroundColor=none;fontColor=default;dashed=1;" edge="1" parent="1" source="KInp1q100SS9J6qhSEow-10" target="KInp1q100SS9J6qhSEow-26">
          <mxGeometry relative="1" as="geometry">
            <mxPoint x="126" y="-1180" as="sourcePoint" />
            <mxPoint x="657" y="-1440" as="targetPoint" />
          </mxGeometry>
        </mxCell>
        <mxCell id="KInp1q100SS9J6qhSEow-39" style="edgeStyle=orthogonalEdgeStyle;rounded=0;orthogonalLoop=1;jettySize=auto;html=1;" edge="1" parent="1" source="KInp1q100SS9J6qhSEow-36" target="KInp1q100SS9J6qhSEow-38">
          <mxGeometry relative="1" as="geometry" />
        </mxCell>
        <mxCell id="KInp1q100SS9J6qhSEow-36" value="" style="ellipse;whiteSpace=wrap;html=1;aspect=fixed;labelBackgroundColor=none;fillColor=#FF0D35;" vertex="1" parent="1">
          <mxGeometry x="137" y="-1320" width="10" height="10" as="geometry" />
        </mxCell>
        <mxCell id="KInp1q100SS9J6qhSEow-41" style="edgeStyle=orthogonalEdgeStyle;rounded=0;orthogonalLoop=1;jettySize=auto;html=1;entryX=0.5;entryY=0;entryDx=0;entryDy=0;" edge="1" parent="1" source="KInp1q100SS9J6qhSEow-37" target="KInp1q100SS9J6qhSEow-40">
          <mxGeometry relative="1" as="geometry" />
        </mxCell>
        <mxCell id="KInp1q100SS9J6qhSEow-37" value="" style="ellipse;whiteSpace=wrap;html=1;aspect=fixed;labelBackgroundColor=none;fillColor=#FF0D35;" vertex="1" parent="1">
          <mxGeometry x="194" y="-1320" width="10" height="10" as="geometry" />
        </mxCell>
        <mxCell id="KInp1q100SS9J6qhSEow-38" value="start&amp;nbsp;&lt;br style=&quot;font-size: 16px;&quot;&gt;api" style="ellipse;whiteSpace=wrap;html=1;spacing=2;fontSize=16;labelBackgroundColor=none;" vertex="1" parent="1">
          <mxGeometry x="107" y="-1260" width="70" height="60" as="geometry" />
        </mxCell>
        <mxCell id="KInp1q100SS9J6qhSEow-40" value="end&amp;nbsp;&lt;br style=&quot;font-size: 16px;&quot;&gt;api" style="ellipse;whiteSpace=wrap;html=1;spacing=2;fontSize=16;labelBackgroundColor=none;" vertex="1" parent="1">
          <mxGeometry x="177" y="-1200" width="70" height="60" as="geometry" />
        </mxCell>
        <mxCell id="KInp1q100SS9J6qhSEow-42" style="edgeStyle=orthogonalEdgeStyle;rounded=0;orthogonalLoop=1;jettySize=auto;html=1;entryX=0;entryY=0.5;entryDx=0;entryDy=0;labelBackgroundColor=none;fontColor=default;dashed=1;exitX=1;exitY=0.5;exitDx=0;exitDy=0;" edge="1" parent="1" source="KInp1q100SS9J6qhSEow-38" target="KInp1q100SS9J6qhSEow-27">
          <mxGeometry relative="1" as="geometry">
            <mxPoint x="161" y="-1221" as="sourcePoint" />
            <mxPoint x="467" y="-1360" as="targetPoint" />
          </mxGeometry>
        </mxCell>
        <mxCell id="KInp1q100SS9J6qhSEow-43" style="edgeStyle=orthogonalEdgeStyle;rounded=0;orthogonalLoop=1;jettySize=auto;html=1;entryX=0;entryY=0.5;entryDx=0;entryDy=0;labelBackgroundColor=none;fontColor=default;dashed=1;" edge="1" parent="1" source="KInp1q100SS9J6qhSEow-40" target="KInp1q100SS9J6qhSEow-31">
          <mxGeometry relative="1" as="geometry">
            <mxPoint x="187" y="-1130" as="sourcePoint" />
            <mxPoint x="467" y="-1280" as="targetPoint" />
          </mxGeometry>
        </mxCell>
        <mxCell id="KInp1q100SS9J6qhSEow-47" value="Service&lt;br&gt;Func2" style="ellipse;whiteSpace=wrap;html=1;spacing=2;fontSize=20;labelBackgroundColor=none;" vertex="1" parent="1">
          <mxGeometry x="102" y="-1130" width="120" height="80" as="geometry" />
        </mxCell>
        <mxCell id="KInp1q100SS9J6qhSEow-48" value="" style="ellipse;whiteSpace=wrap;html=1;aspect=fixed;labelBackgroundColor=none;fillColor=#000000;" vertex="1" parent="1">
          <mxGeometry x="158" y="-1026" width="10" height="10" as="geometry" />
        </mxCell>
        <mxCell id="KInp1q100SS9J6qhSEow-49" value="" style="ellipse;whiteSpace=wrap;html=1;aspect=fixed;labelBackgroundColor=none;fillColor=#000000;" vertex="1" parent="1">
          <mxGeometry x="158" y="-996" width="10" height="10" as="geometry" />
        </mxCell>
        <mxCell id="KInp1q100SS9J6qhSEow-55" style="edgeStyle=orthogonalEdgeStyle;rounded=0;orthogonalLoop=1;jettySize=auto;html=1;entryX=0;entryY=0.5;entryDx=0;entryDy=0;labelBackgroundColor=none;fontColor=default;dashed=1;exitX=1;exitY=0.5;exitDx=0;exitDy=0;" edge="1" parent="1" source="KInp1q100SS9J6qhSEow-23" target="KInp1q100SS9J6qhSEow-57">
          <mxGeometry relative="1" as="geometry">
            <mxPoint x="480" y="-1420" as="sourcePoint" />
            <mxPoint x="600.0000000000005" y="-1410" as="targetPoint" />
          </mxGeometry>
        </mxCell>
        <mxCell id="KInp1q100SS9J6qhSEow-56" style="edgeStyle=orthogonalEdgeStyle;rounded=0;orthogonalLoop=1;jettySize=auto;html=1;labelBackgroundColor=none;fontColor=default;dashed=1;exitX=1;exitY=0.5;exitDx=0;exitDy=0;entryX=0;entryY=0.5;entryDx=0;entryDy=0;" edge="1" parent="1" source="KInp1q100SS9J6qhSEow-26" target="KInp1q100SS9J6qhSEow-58">
          <mxGeometry relative="1" as="geometry">
            <mxPoint x="490" y="-1410" as="sourcePoint" />
            <mxPoint x="630" y="-1300" as="targetPoint" />
          </mxGeometry>
        </mxCell>
        <mxCell id="KInp1q100SS9J6qhSEow-78" style="edgeStyle=orthogonalEdgeStyle;rounded=0;orthogonalLoop=1;jettySize=auto;html=1;entryX=0;entryY=0.5;entryDx=0;entryDy=0;dashed=1;" edge="1" parent="1" source="KInp1q100SS9J6qhSEow-57" target="KInp1q100SS9J6qhSEow-68">
          <mxGeometry relative="1" as="geometry" />
        </mxCell>
        <mxCell id="KInp1q100SS9J6qhSEow-57" value="" style="rounded=0;whiteSpace=wrap;html=1;labelBackgroundColor=none;" vertex="1" parent="1">
          <mxGeometry x="545" y="-1420" width="80" height="40" as="geometry" />
        </mxCell>
        <mxCell id="KInp1q100SS9J6qhSEow-58" value="" style="rounded=0;whiteSpace=wrap;html=1;labelBackgroundColor=none;" vertex="1" parent="1">
          <mxGeometry x="545" y="-1380" width="80" height="40" as="geometry" />
        </mxCell>
        <mxCell id="KInp1q100SS9J6qhSEow-60" value="" style="rounded=0;whiteSpace=wrap;html=1;labelBackgroundColor=none;" vertex="1" parent="1">
          <mxGeometry x="545" y="-1340" width="80" height="40" as="geometry" />
        </mxCell>
        <mxCell id="KInp1q100SS9J6qhSEow-61" value="" style="rounded=0;whiteSpace=wrap;html=1;labelBackgroundColor=none;" vertex="1" parent="1">
          <mxGeometry x="545" y="-1300" width="80" height="40" as="geometry" />
        </mxCell>
        <mxCell id="KInp1q100SS9J6qhSEow-63" style="edgeStyle=orthogonalEdgeStyle;rounded=0;orthogonalLoop=1;jettySize=auto;html=1;labelBackgroundColor=none;fontColor=default;dashed=1;exitX=1;exitY=0.5;exitDx=0;exitDy=0;entryX=0;entryY=0.5;entryDx=0;entryDy=0;" edge="1" parent="1" source="KInp1q100SS9J6qhSEow-27" target="KInp1q100SS9J6qhSEow-60">
          <mxGeometry relative="1" as="geometry">
            <mxPoint x="490" y="-1370" as="sourcePoint" />
            <mxPoint x="610" y="-1380" as="targetPoint" />
          </mxGeometry>
        </mxCell>
        <mxCell id="KInp1q100SS9J6qhSEow-64" style="edgeStyle=orthogonalEdgeStyle;rounded=0;orthogonalLoop=1;jettySize=auto;html=1;labelBackgroundColor=none;fontColor=default;dashed=1;exitX=1;exitY=0.5;exitDx=0;exitDy=0;entryX=0;entryY=0.5;entryDx=0;entryDy=0;" edge="1" parent="1" source="KInp1q100SS9J6qhSEow-31" target="KInp1q100SS9J6qhSEow-61">
          <mxGeometry relative="1" as="geometry">
            <mxPoint x="490" y="-1330" as="sourcePoint" />
            <mxPoint x="610" y="-1340" as="targetPoint" />
          </mxGeometry>
        </mxCell>
        <mxCell id="KInp1q100SS9J6qhSEow-23" value="" style="rounded=0;whiteSpace=wrap;html=1;labelBackgroundColor=none;container=0;" vertex="1" parent="1">
          <mxGeometry x="347" y="-1440" width="93" height="40" as="geometry" />
        </mxCell>
        <mxCell id="KInp1q100SS9J6qhSEow-26" value="" style="rounded=0;whiteSpace=wrap;html=1;labelBackgroundColor=none;container=0;" vertex="1" parent="1">
          <mxGeometry x="347" y="-1400" width="93" height="40" as="geometry" />
        </mxCell>
        <mxCell id="KInp1q100SS9J6qhSEow-27" value="" style="rounded=0;whiteSpace=wrap;html=1;labelBackgroundColor=none;container=0;" vertex="1" parent="1">
          <mxGeometry x="347" y="-1360" width="93" height="40" as="geometry" />
        </mxCell>
        <mxCell id="KInp1q100SS9J6qhSEow-31" value="" style="rounded=0;whiteSpace=wrap;html=1;labelBackgroundColor=none;container=0;" vertex="1" parent="1">
          <mxGeometry x="347" y="-1320" width="93" height="40" as="geometry" />
        </mxCell>
        <mxCell id="KInp1q100SS9J6qhSEow-32" value="" style="rounded=0;whiteSpace=wrap;html=1;labelBackgroundColor=none;container=0;" vertex="1" parent="1">
          <mxGeometry x="347" y="-1280" width="93" height="40" as="geometry" />
        </mxCell>
        <mxCell id="KInp1q100SS9J6qhSEow-33" value="" style="rounded=0;whiteSpace=wrap;html=1;labelBackgroundColor=none;container=0;" vertex="1" parent="1">
          <mxGeometry x="347" y="-1240" width="93" height="40" as="geometry" />
        </mxCell>
        <mxCell id="KInp1q100SS9J6qhSEow-68" value="" style="rounded=0;whiteSpace=wrap;html=1;labelBackgroundColor=none;" vertex="1" parent="1">
          <mxGeometry x="740" y="-1420" width="80" height="40" as="geometry" />
        </mxCell>
        <mxCell id="KInp1q100SS9J6qhSEow-69" value="" style="rounded=0;whiteSpace=wrap;html=1;labelBackgroundColor=none;" vertex="1" parent="1">
          <mxGeometry x="740" y="-1380" width="80" height="40" as="geometry" />
        </mxCell>
        <mxCell id="KInp1q100SS9J6qhSEow-70" value="" style="rounded=0;whiteSpace=wrap;html=1;labelBackgroundColor=none;" vertex="1" parent="1">
          <mxGeometry x="740" y="-1340" width="80" height="40" as="geometry" />
        </mxCell>
        <mxCell id="KInp1q100SS9J6qhSEow-71" value="" style="rounded=0;whiteSpace=wrap;html=1;labelBackgroundColor=none;" vertex="1" parent="1">
          <mxGeometry x="740" y="-1300" width="80" height="40" as="geometry" />
        </mxCell>
        <mxCell id="KInp1q100SS9J6qhSEow-79" style="edgeStyle=orthogonalEdgeStyle;rounded=0;orthogonalLoop=1;jettySize=auto;html=1;entryX=0;entryY=0.5;entryDx=0;entryDy=0;dashed=1;exitX=1;exitY=0.5;exitDx=0;exitDy=0;" edge="1" parent="1" source="KInp1q100SS9J6qhSEow-58" target="KInp1q100SS9J6qhSEow-69">
          <mxGeometry relative="1" as="geometry">
            <mxPoint x="645" y="-1390" as="sourcePoint" />
            <mxPoint x="770" y="-1390" as="targetPoint" />
          </mxGeometry>
        </mxCell>
        <mxCell id="KInp1q100SS9J6qhSEow-80" style="edgeStyle=orthogonalEdgeStyle;rounded=0;orthogonalLoop=1;jettySize=auto;html=1;dashed=1;exitX=1;exitY=0.5;exitDx=0;exitDy=0;" edge="1" parent="1" source="KInp1q100SS9J6qhSEow-60">
          <mxGeometry relative="1" as="geometry">
            <mxPoint x="655" y="-1380" as="sourcePoint" />
            <mxPoint x="740" y="-1320" as="targetPoint" />
          </mxGeometry>
        </mxCell>
        <mxCell id="KInp1q100SS9J6qhSEow-81" style="edgeStyle=orthogonalEdgeStyle;rounded=0;orthogonalLoop=1;jettySize=auto;html=1;dashed=1;exitX=1;exitY=0.5;exitDx=0;exitDy=0;" edge="1" parent="1" source="KInp1q100SS9J6qhSEow-61">
          <mxGeometry relative="1" as="geometry">
            <mxPoint x="665" y="-1370" as="sourcePoint" />
            <mxPoint x="740" y="-1280" as="targetPoint" />
          </mxGeometry>
        </mxCell>
      </root>
    </mxGraphModel>
  </diagram>
  <diagram id="d7shCx91Y5sczbDm3955" name="Dash Board">
    <mxGraphModel dx="1434" dy="796" grid="1" gridSize="10" guides="1" tooltips="1" connect="1" arrows="1" fold="1" page="1" pageScale="1" pageWidth="1169" pageHeight="827" math="0" shadow="0">
      <root>
        <mxCell id="0" />
        <mxCell id="1" parent="0" />
        <mxCell id="8kFONTQGyUh7upUIubPe-94" value="" style="group;verticalAlign=top;perimeterSpacing=100;container=0;fillColor=#FFCC99;strokeColor=none;gradientDirection=radial;gradientColor=#66FF66;" vertex="1" connectable="0" parent="1">
          <mxGeometry x="200" y="480" width="320" height="310" as="geometry" />
        </mxCell>
        <mxCell id="8kFONTQGyUh7upUIubPe-107" value="" style="group;verticalAlign=top;perimeterSpacing=100;container=0;fillColor=#FFCC99;strokeColor=none;gradientDirection=radial;gradientColor=#66FF66;" vertex="1" connectable="0" parent="1">
          <mxGeometry x="760" y="480" width="320" height="310" as="geometry" />
        </mxCell>
        <mxCell id="8kFONTQGyUh7upUIubPe-77" value="" style="group" vertex="1" connectable="0" parent="1">
          <mxGeometry x="80" y="60" width="320" height="330" as="geometry" />
        </mxCell>
        <mxCell id="8kFONTQGyUh7upUIubPe-70" value="" style="group" vertex="1" connectable="0" parent="8kFONTQGyUh7upUIubPe-77">
          <mxGeometry width="320" height="330" as="geometry" />
        </mxCell>
        <mxCell id="8kFONTQGyUh7upUIubPe-21" value="" style="group;verticalAlign=top;perimeterSpacing=100;container=0;fillColor=#67AB9F;strokeColor=none;gradientDirection=radial;gradientColor=#D5E8D4;" vertex="1" connectable="0" parent="8kFONTQGyUh7upUIubPe-70">
          <mxGeometry y="20" width="320" height="310" as="geometry" />
        </mxCell>
        <mxCell id="8kFONTQGyUh7upUIubPe-68" value="CH" style="text;html=1;strokeColor=none;fillColor=none;align=center;verticalAlign=middle;whiteSpace=wrap;rounded=0;fontSize=40;strokeWidth=2;" vertex="1" parent="8kFONTQGyUh7upUIubPe-70">
          <mxGeometry x="128.00333333333333" width="64" height="30" as="geometry" />
        </mxCell>
        <mxCell id="8kFONTQGyUh7upUIubPe-72" value="" style="group" vertex="1" connectable="0" parent="8kFONTQGyUh7upUIubPe-77">
          <mxGeometry x="20" y="190" width="120" height="140" as="geometry" />
        </mxCell>
        <mxCell id="8kFONTQGyUh7upUIubPe-32" value="TDP" style="rounded=0;whiteSpace=wrap;html=1;verticalAlign=top;fontSize=20;fontStyle=1;strokeColor=none;fillColor=none;" vertex="1" parent="8kFONTQGyUh7upUIubPe-72">
          <mxGeometry width="120" height="120" as="geometry" />
        </mxCell>
        <mxCell id="8kFONTQGyUh7upUIubPe-33" value="15" style="ellipse;whiteSpace=wrap;html=1;fontSize=36;fillColor=#dae8fc;container=0;strokeColor=none;gradientColor=#99FFFF;gradientDirection=north;" vertex="1" parent="8kFONTQGyUh7upUIubPe-72">
          <mxGeometry x="8.571428571428555" y="30" width="102.85714285714285" height="80" as="geometry" />
        </mxCell>
        <mxCell id="8kFONTQGyUh7upUIubPe-34" value="321,198" style="text;html=1;strokeColor=none;fillColor=none;align=center;verticalAlign=middle;whiteSpace=wrap;rounded=0;fontSize=18;" vertex="1" parent="8kFONTQGyUh7upUIubPe-72">
          <mxGeometry x="30" y="110" width="60" height="30" as="geometry" />
        </mxCell>
        <mxCell id="8kFONTQGyUh7upUIubPe-4" value="ODP" style="rounded=0;whiteSpace=wrap;html=1;verticalAlign=top;fontSize=20;fontStyle=1;strokeColor=none;fillColor=none;container=0;" vertex="1" parent="8kFONTQGyUh7upUIubPe-77">
          <mxGeometry x="20" y="30" width="120" height="120" as="geometry" />
        </mxCell>
        <mxCell id="8kFONTQGyUh7upUIubPe-5" value="21" style="ellipse;whiteSpace=wrap;html=1;fontSize=36;fillColor=#dae8fc;container=0;strokeColor=none;gradientColor=#99FFFF;gradientDirection=north;" vertex="1" parent="8kFONTQGyUh7upUIubPe-77">
          <mxGeometry x="28.571428571428555" y="60" width="102.85714285714285" height="80" as="geometry" />
        </mxCell>
        <mxCell id="8kFONTQGyUh7upUIubPe-20" value="321,198" style="text;html=1;strokeColor=none;fillColor=none;align=center;verticalAlign=middle;whiteSpace=wrap;rounded=0;fontSize=18;container=0;" vertex="1" parent="8kFONTQGyUh7upUIubPe-77">
          <mxGeometry x="50" y="140" width="60" height="30" as="geometry" />
        </mxCell>
        <mxCell id="8kFONTQGyUh7upUIubPe-36" value="MEP" style="rounded=0;whiteSpace=wrap;html=1;verticalAlign=top;fontSize=20;fontStyle=1;strokeColor=none;fillColor=none;container=0;" vertex="1" parent="8kFONTQGyUh7upUIubPe-77">
          <mxGeometry x="180" y="120" width="120" height="120" as="geometry" />
        </mxCell>
        <mxCell id="8kFONTQGyUh7upUIubPe-37" value="21" style="ellipse;whiteSpace=wrap;html=1;fontSize=36;fillColor=#dae8fc;container=0;strokeColor=none;gradientColor=#99FFFF;gradientDirection=north;" vertex="1" parent="8kFONTQGyUh7upUIubPe-77">
          <mxGeometry x="188.57142857142856" y="150" width="102.85714285714285" height="80" as="geometry" />
        </mxCell>
        <mxCell id="8kFONTQGyUh7upUIubPe-38" value="321,198" style="text;html=1;strokeColor=none;fillColor=none;align=center;verticalAlign=middle;whiteSpace=wrap;rounded=0;fontSize=18;container=0;" vertex="1" parent="8kFONTQGyUh7upUIubPe-77">
          <mxGeometry x="210" y="230" width="60" height="30" as="geometry" />
        </mxCell>
        <mxCell id="8kFONTQGyUh7upUIubPe-96" value="" style="group" vertex="1" connectable="0" parent="1">
          <mxGeometry x="220" y="650" width="120" height="140" as="geometry" />
        </mxCell>
        <mxCell id="8kFONTQGyUh7upUIubPe-97" value="TDP" style="rounded=0;whiteSpace=wrap;html=1;verticalAlign=top;fontSize=20;fontStyle=1;strokeColor=none;fillColor=none;" vertex="1" parent="8kFONTQGyUh7upUIubPe-96">
          <mxGeometry width="120" height="120" as="geometry" />
        </mxCell>
        <mxCell id="8kFONTQGyUh7upUIubPe-98" value="15" style="ellipse;whiteSpace=wrap;html=1;fontSize=36;fillColor=#dae8fc;container=0;strokeColor=none;gradientColor=#99FFFF;gradientDirection=north;" vertex="1" parent="8kFONTQGyUh7upUIubPe-96">
          <mxGeometry x="8.571428571428555" y="30" width="102.85714285714285" height="80" as="geometry" />
        </mxCell>
        <mxCell id="8kFONTQGyUh7upUIubPe-99" value="321,198" style="text;html=1;strokeColor=none;fillColor=none;align=center;verticalAlign=middle;whiteSpace=wrap;rounded=0;fontSize=18;" vertex="1" parent="8kFONTQGyUh7upUIubPe-96">
          <mxGeometry x="30" y="110" width="60" height="30" as="geometry" />
        </mxCell>
        <mxCell id="8kFONTQGyUh7upUIubPe-100" value="ODP" style="rounded=0;whiteSpace=wrap;html=1;verticalAlign=top;fontSize=20;fontStyle=1;strokeColor=none;fillColor=none;container=0;" vertex="1" parent="1">
          <mxGeometry x="220" y="490" width="120" height="120" as="geometry" />
        </mxCell>
        <mxCell id="8kFONTQGyUh7upUIubPe-101" value="21" style="ellipse;whiteSpace=wrap;html=1;fontSize=36;fillColor=#dae8fc;container=0;strokeColor=none;gradientColor=#99FFFF;gradientDirection=north;" vertex="1" parent="1">
          <mxGeometry x="228.57142857142856" y="520" width="102.85714285714285" height="80" as="geometry" />
        </mxCell>
        <mxCell id="8kFONTQGyUh7upUIubPe-102" value="321,198" style="text;html=1;strokeColor=none;fillColor=none;align=center;verticalAlign=middle;whiteSpace=wrap;rounded=0;fontSize=18;container=0;" vertex="1" parent="1">
          <mxGeometry x="250" y="600" width="60" height="30" as="geometry" />
        </mxCell>
        <mxCell id="8kFONTQGyUh7upUIubPe-103" value="MEP" style="rounded=0;whiteSpace=wrap;html=1;verticalAlign=top;fontSize=20;fontStyle=1;strokeColor=none;fillColor=none;container=0;" vertex="1" parent="1">
          <mxGeometry x="380" y="580" width="120" height="120" as="geometry" />
        </mxCell>
        <mxCell id="8kFONTQGyUh7upUIubPe-104" value="21" style="ellipse;whiteSpace=wrap;html=1;fontSize=36;fillColor=#dae8fc;container=0;strokeColor=none;gradientColor=#99FFFF;gradientDirection=north;" vertex="1" parent="1">
          <mxGeometry x="388.57142857142856" y="610" width="102.85714285714285" height="80" as="geometry" />
        </mxCell>
        <mxCell id="8kFONTQGyUh7upUIubPe-105" value="321,198" style="text;html=1;strokeColor=none;fillColor=none;align=center;verticalAlign=middle;whiteSpace=wrap;rounded=0;fontSize=18;container=0;" vertex="1" parent="1">
          <mxGeometry x="410" y="690" width="60" height="30" as="geometry" />
        </mxCell>
        <mxCell id="8kFONTQGyUh7upUIubPe-109" value="" style="group" vertex="1" connectable="0" parent="1">
          <mxGeometry x="780" y="650" width="120" height="140" as="geometry" />
        </mxCell>
        <mxCell id="8kFONTQGyUh7upUIubPe-110" value="TDP" style="rounded=0;whiteSpace=wrap;html=1;verticalAlign=top;fontSize=20;fontStyle=1;strokeColor=none;fillColor=none;" vertex="1" parent="8kFONTQGyUh7upUIubPe-109">
          <mxGeometry width="120" height="120" as="geometry" />
        </mxCell>
        <mxCell id="8kFONTQGyUh7upUIubPe-111" value="15" style="ellipse;whiteSpace=wrap;html=1;fontSize=36;fillColor=#dae8fc;container=0;strokeColor=none;gradientColor=#99FFFF;gradientDirection=north;" vertex="1" parent="8kFONTQGyUh7upUIubPe-109">
          <mxGeometry x="8.571428571428555" y="30" width="102.85714285714285" height="80" as="geometry" />
        </mxCell>
        <mxCell id="8kFONTQGyUh7upUIubPe-112" value="321,198" style="text;html=1;strokeColor=none;fillColor=none;align=center;verticalAlign=middle;whiteSpace=wrap;rounded=0;fontSize=18;" vertex="1" parent="8kFONTQGyUh7upUIubPe-109">
          <mxGeometry x="30" y="110" width="60" height="30" as="geometry" />
        </mxCell>
        <mxCell id="8kFONTQGyUh7upUIubPe-113" value="ODP" style="rounded=0;whiteSpace=wrap;html=1;verticalAlign=top;fontSize=20;fontStyle=1;strokeColor=none;fillColor=none;container=0;" vertex="1" parent="1">
          <mxGeometry x="780" y="490" width="120" height="120" as="geometry" />
        </mxCell>
        <mxCell id="8kFONTQGyUh7upUIubPe-114" value="21" style="ellipse;whiteSpace=wrap;html=1;fontSize=36;fillColor=#dae8fc;container=0;strokeColor=none;gradientColor=#99FFFF;gradientDirection=north;" vertex="1" parent="1">
          <mxGeometry x="788.5714285714286" y="520" width="102.85714285714285" height="80" as="geometry" />
        </mxCell>
        <mxCell id="8kFONTQGyUh7upUIubPe-115" value="321,198" style="text;html=1;strokeColor=none;fillColor=none;align=center;verticalAlign=middle;whiteSpace=wrap;rounded=0;fontSize=18;container=0;" vertex="1" parent="1">
          <mxGeometry x="810" y="600" width="60" height="30" as="geometry" />
        </mxCell>
        <mxCell id="8kFONTQGyUh7upUIubPe-116" value="MEP" style="rounded=0;whiteSpace=wrap;html=1;verticalAlign=top;fontSize=20;fontStyle=1;strokeColor=none;fillColor=none;container=0;" vertex="1" parent="1">
          <mxGeometry x="940" y="580" width="120" height="120" as="geometry" />
        </mxCell>
        <mxCell id="8kFONTQGyUh7upUIubPe-117" value="21" style="ellipse;whiteSpace=wrap;html=1;fontSize=36;fillColor=#dae8fc;container=0;strokeColor=none;gradientColor=#99FFFF;gradientDirection=north;" vertex="1" parent="1">
          <mxGeometry x="948.5714285714286" y="610" width="102.85714285714285" height="80" as="geometry" />
        </mxCell>
        <mxCell id="8kFONTQGyUh7upUIubPe-118" value="321,198" style="text;html=1;strokeColor=none;fillColor=none;align=center;verticalAlign=middle;whiteSpace=wrap;rounded=0;fontSize=18;container=0;" vertex="1" parent="1">
          <mxGeometry x="970" y="690" width="60" height="30" as="geometry" />
        </mxCell>
        <mxCell id="8kFONTQGyUh7upUIubPe-79" value="" style="group" vertex="1" connectable="0" parent="1">
          <mxGeometry x="540" y="60" width="320" height="330" as="geometry" />
        </mxCell>
        <mxCell id="8kFONTQGyUh7upUIubPe-80" value="" style="group;verticalAlign=top;perimeterSpacing=100;container=0;fillColor=#f8cecc;strokeColor=none;gradientDirection=radial;gradientColor=#FFCCFF;" vertex="1" connectable="0" parent="8kFONTQGyUh7upUIubPe-79">
          <mxGeometry y="20" width="320" height="310" as="geometry" />
        </mxCell>
        <mxCell id="8kFONTQGyUh7upUIubPe-81" value="ME" style="text;html=1;strokeColor=none;fillColor=none;align=center;verticalAlign=middle;whiteSpace=wrap;rounded=0;fontSize=40;strokeWidth=2;" vertex="1" parent="8kFONTQGyUh7upUIubPe-79">
          <mxGeometry x="140.00333333333333" width="64" height="30" as="geometry" />
        </mxCell>
        <mxCell id="8kFONTQGyUh7upUIubPe-82" value="" style="group" vertex="1" connectable="0" parent="1">
          <mxGeometry x="560" y="250" width="120" height="140" as="geometry" />
        </mxCell>
        <mxCell id="8kFONTQGyUh7upUIubPe-83" value="TDP" style="rounded=0;whiteSpace=wrap;html=1;verticalAlign=top;fontSize=20;fontStyle=1;strokeColor=none;fillColor=none;" vertex="1" parent="8kFONTQGyUh7upUIubPe-82">
          <mxGeometry width="120" height="120" as="geometry" />
        </mxCell>
        <mxCell id="8kFONTQGyUh7upUIubPe-84" value="15" style="ellipse;whiteSpace=wrap;html=1;fontSize=36;fillColor=#dae8fc;container=0;strokeColor=none;gradientColor=#99FFFF;gradientDirection=north;" vertex="1" parent="8kFONTQGyUh7upUIubPe-82">
          <mxGeometry x="8.571428571428555" y="30" width="102.85714285714285" height="80" as="geometry" />
        </mxCell>
        <mxCell id="8kFONTQGyUh7upUIubPe-85" value="321,198" style="text;html=1;strokeColor=none;fillColor=none;align=center;verticalAlign=middle;whiteSpace=wrap;rounded=0;fontSize=18;" vertex="1" parent="8kFONTQGyUh7upUIubPe-82">
          <mxGeometry x="30" y="110" width="60" height="30" as="geometry" />
        </mxCell>
        <mxCell id="8kFONTQGyUh7upUIubPe-86" value="ODP" style="rounded=0;whiteSpace=wrap;html=1;verticalAlign=top;fontSize=20;fontStyle=1;strokeColor=none;fillColor=none;container=0;" vertex="1" parent="1">
          <mxGeometry x="560" y="90" width="120" height="120" as="geometry" />
        </mxCell>
        <mxCell id="8kFONTQGyUh7upUIubPe-87" value="21" style="ellipse;whiteSpace=wrap;html=1;fontSize=36;fillColor=#dae8fc;container=0;strokeColor=none;gradientColor=#99FFFF;gradientDirection=north;" vertex="1" parent="1">
          <mxGeometry x="568.5714285714286" y="120" width="102.85714285714285" height="80" as="geometry" />
        </mxCell>
        <mxCell id="8kFONTQGyUh7upUIubPe-88" value="321,198" style="text;html=1;strokeColor=none;fillColor=none;align=center;verticalAlign=middle;whiteSpace=wrap;rounded=0;fontSize=18;container=0;" vertex="1" parent="1">
          <mxGeometry x="590" y="200" width="60" height="30" as="geometry" />
        </mxCell>
        <mxCell id="8kFONTQGyUh7upUIubPe-89" value="MEP" style="rounded=0;whiteSpace=wrap;html=1;verticalAlign=top;fontSize=20;fontStyle=1;strokeColor=none;fillColor=none;container=0;" vertex="1" parent="1">
          <mxGeometry x="720" y="180" width="120" height="120" as="geometry" />
        </mxCell>
        <mxCell id="8kFONTQGyUh7upUIubPe-90" value="21" style="ellipse;whiteSpace=wrap;html=1;fontSize=36;fillColor=#dae8fc;container=0;strokeColor=none;gradientColor=#99FFFF;gradientDirection=north;" vertex="1" parent="1">
          <mxGeometry x="728.5714285714286" y="210" width="102.85714285714285" height="80" as="geometry" />
        </mxCell>
        <mxCell id="8kFONTQGyUh7upUIubPe-91" value="321,198" style="text;html=1;strokeColor=none;fillColor=none;align=center;verticalAlign=middle;whiteSpace=wrap;rounded=0;fontSize=18;container=0;" vertex="1" parent="1">
          <mxGeometry x="750" y="290" width="60" height="30" as="geometry" />
        </mxCell>
        <mxCell id="8kFONTQGyUh7upUIubPe-108" value="DB" style="text;html=1;strokeColor=none;fillColor=none;align=center;verticalAlign=middle;whiteSpace=wrap;rounded=0;fontSize=40;strokeWidth=2;" vertex="1" parent="1">
          <mxGeometry x="900.0033333333333" y="460" width="64" height="30" as="geometry" />
        </mxCell>
        <mxCell id="8kFONTQGyUh7upUIubPe-95" value="TS" style="text;html=1;strokeColor=none;fillColor=none;align=center;verticalAlign=middle;whiteSpace=wrap;rounded=0;fontSize=40;strokeWidth=2;" vertex="1" parent="1">
          <mxGeometry x="336.00333333333333" y="460" width="64" height="30" as="geometry" />
        </mxCell>
      </root>
    </mxGraphModel>
  </diagram>
</mxfile>
